<svg height="565" viewBox="0 0 683 565" width="683" xmlns="http://www.w3.org/2000/svg"><g fill="none" fill-rule="evenodd" transform="translate(3 3)"><g stroke="#f1f1f1" stroke-width="6"><path d="m201.373604 166.554549 63.252792 17.890902" opacity=".064538" stroke-linecap="square"/><circle cx="115.5" cy="92.5" opacity=".064538" r="24.5"/><circle cx="353.5" cy="24.5" opacity=".064538" r="24.5"/><path d="m0 .00500054c13.3001661.26625181 24 11.13108556 24 24.49499946s-10.6998339 24.2287476-24 24.4949995z" opacity=".064538" transform="translate(253 280)"/><path d="m0 .00500054c13.3001661.26625181 24 11.13108556 24 24.49499946s-10.6998339 24.2287476-24 24.4949995z" opacity=".064538" transform="matrix(0 -1 1 0 120.5 469.5)"/><path d="m0 .00500054c13.3001661.26625181 24 11.13108556 24 24.49499946s-10.6998339 24.2287476-24 24.4949995z" opacity=".059386" transform="matrix(-.7313537 .68199836 -.68199836 -.7313537 170.985204 543.734185)"/><path d="m393.2193 173.2193h53v53h-53z" opacity=".064538" transform="matrix(.70710678 .70710678 -.70710678 .70710678 264.155808 -238.289935)"/><path d="m89.2193 261.2193h53v53h-53z" opacity=".064538" transform="matrix(.70710678 .70710678 -.70710678 .70710678 237.341666 2.44513)"/><path d="m575.815455 220.5 55-36" opacity=".064538" stroke-linecap="square"/><g opacity=".064538" stroke-linecap="square" transform="translate(369 477)"><path d="m0 63 63.2527915 17.8909019"/><path d="m0 63.2527915 17.8909019-63.2527915"/></g><g opacity=".064538" stroke-linecap="square" transform="matrix(-.93969262 -.34202014 .34202014 -.93969262 546.218348 157.502196)"><path d="m0 63 63.2527915 17.8909019"/><path d="m0 63.2527915 17.8909019-63.2527915"/></g><g opacity=".064538" stroke-linecap="square" transform="matrix(-.60181502 -.79863551 .79863551 -.60181502 617.835323 438.932041)"><path d="m0 63 63.2527915 17.8909019"/><path d="m0 63.2527915 17.8909019-63.2527915"/></g><path d="m370 342 31.069443 57.928315" opacity=".064538" stroke-linecap="square"/><path d="m675.575167 539.800508-37.897542-53.710114" opacity=".064538" stroke-linecap="square"/></g><circle cx="251.5" cy="502.5" fill="#f1f1f1" fill-rule="nonzero" opacity=".064538" r="10.5"/><circle cx="540.5" cy="329.5" fill="#f1f1f1" fill-rule="nonzero" opacity=".064538" r="10.5"/><circle cx="230.5" cy="92.5" fill="#f1f1f1" fill-rule="nonzero" opacity=".064538" r="10.5"/><circle cx="24.5" cy="550.5" fill="#f1f1f1" fill-rule="nonzero" opacity=".064538" r="10.5"/><path d="m0 .00500054c13.3001661.26625181 24 11.13108556 24 24.49499946s-10.6998339 24.2287476-24 24.4949995z" opacity=".064934" stroke="#f1f1f1" stroke-width="6" transform="matrix(.93969262 -.34202014 .34202014 .93969262 534.293744 471.953088)"/><circle cx="24.5" cy="194.5" opacity=".064538" r="24.5" stroke="#f1f1f1" stroke-width="6"/><circle cx="63.5" cy="389.5" fill="#f1f1f1" fill-rule="nonzero" opacity=".064538" r="10.5"/></g></svg>