<svg enable-background="new 0 0 765 359" height="359" viewBox="0 0 765 359" width="765" xmlns="http://www.w3.org/2000/svg"><path d="m78.2 94.9c1.4 2.6 3.3 6.7 4.9 9.2 1.1 1.7 2.3 3.2 3.7 4.6 4.1 4.1 8 8.4 11.5 13 8.3 10.9 13.9 23 17.9 36.1 2.4 8 3.7 16.2 3.8 24.5.4 24.8-8.1 46.1-25.3 63.8-2.8 2.8-5.8 5.4-9 7.7-1.7 0-2.5-1.3-3.2-2.5-1.3-2.2-2.1-4.7-2.5-7.2-.6-3-1-6-.8-9.1 0-.5 0-.9 0-1.4-.1-.3-1.6-138-1-138.7z" fill="#599636"/><path d="m171.1 215.9v15.2c0 .6 0 1.2.1 1.8.2 1.8 1.3 2.9 3 3.4 1.5.4 3.1.7 4.6.9.9.1 1.2.5 1.3 1.4.1 3.4-.2 3.8-3.5 3.6-7.7-.4-15.4-.5-23.1 0-.3 0-.6 0-.8 0-2.4.1-2.6-.1-2.6-2.5 0-.4.1-.9.1-1.3 0-.8.5-1.1 1.2-1.1 1.6-.2 3.1-.6 4.6-.9 2.1-.5 3.3-1.8 3.5-3.9.3-2.3.3-4.7.3-7 .3-8.9.2-17.9.1-26.8 0-1.7-.7-3-2.2-3.8-1.8-1-3.7-1.8-5.7-2.4-.6-.2-1.2-.3-1.7-.6-1.4-.7-1.5-2-.1-2.8.5-.3 1.1-.5 1.7-.6 6.1-.9 12-2.4 17.8-4.5 1.2-.4 1.5-.3 1.6.9.1.8 0 1.6-.1 2.3-.2 1.3-.2 2.6-.2 3.8 0 .5.1 1 .6 1.3s1 0 1.4-.3c2.1-1.6 4.2-3.1 6.5-4.4 3.3-1.8 6.8-3.4 10.6-3.9 4.6-.6 8.6.6 12.1 3.6 1.5 1.3 2.7 2.8 3.8 4.4 1 1.4 1.1 1.5 2.4.5 3.8-2.8 7.8-5.3 12.1-7.1 4.5-1.9 9.1-2.2 13.7-.6 4.7 1.7 7.9 5 9.8 9.5 1.6 3.6 2.3 7.4 2.3 11.2v17.8 9c0 1.8.8 3 2.5 3.8 1.9.8 4 1.1 6 1.5 1.3.3 1.3.3 1.3 1.6-.2 3.3-.5 3.5-3.7 3.3-8-.5-16.1-.4-24.1 0-1.6.1-1.6.1-1.7-1.5 0-.2 0-.3 0-.5-.1-2.7-.1-2.7 2.5-3.3.9-.2 1.7-.4 2.6-.7 2-.6 3-1.9 3.1-3.9.1-2.5.2-5 .3-7.5 0-6.5.2-13.1-.2-19.6-.1-1.7-.4-3.4-1.1-5.1-2.5-6.1-8-8.3-13.3-7.7-4 .4-7.5 2-10.8 4.3-.7.5-1.2 1.1-1.1 2.1.9 6.4.3 12.8.4 19.2.1 4.6 0 9.3 0 13.9 0 2.5 1 3.7 3.4 4.3 1.5.4 3 .7 4.6 1 .7.1 1.1.4 1.1 1.2v.8c-.1 2.8-.3 3-3.1 2.9-8-.4-16-.3-23.9 0-2.7.1-3-.2-2.8-3 .1-1.6.3-1.7 1.8-2 1.1-.2 2.2-.4 3.3-.6 3-.6 4-1.7 4.2-4.8.1-2.2.3-4.5.3-6.7.1-6.7.3-13.4-.2-20.1-.2-2.5-.8-4.9-2.1-7.2-2-3.7-5.2-5.6-9.4-5.8-4.3-.3-8.1 1.3-11.7 3.3-2.5 1.4-3.6 3.2-3.4 6.1.1 5-.1 9.8 0 14.6-.1 0 0 0 0 0z" fill="#47474a"/><path d="m359.5 216.5v14.1c0 1 .1 2 .2 3 .2 1.5 1 2.4 2.4 2.8 1.7.5 3.5.8 5.3.9 1 .1 1.2.5 1.3 1.3v.7c-.1 3.5-.5 3.9-3.9 3.7-7.6-.5-15.2-.4-22.8 0-1 0-2 .1-3 .1-.6 0-.8-.3-.9-.7-.3-1.4-.3-2.8 0-4.2.1-.6.5-.8 1.1-.9 1.4-.2 2.7-.5 4.1-.8 2.5-.6 3.4-1.6 3.5-4.2.2-2.8.3-5.6.3-8.4 0-8.2 0-16.4 0-24.6 0-1.8-.7-2.9-2.3-3.7-1.8-1-3.7-1.7-5.7-2.4-.6-.2-1.2-.4-1.7-.7-1.3-.9-1.4-2.2-.2-3.2.6-.5 1.2-.7 2-.8 6.4-1 12.6-2.4 18.6-4.8.7-.3 1-.1 1.3.5s.4 1.3.3 2c-.1 1.6-.2 3.1-.3 4.7 0 .6-.3 1.4.2 1.7.6.4 1-.5 1.5-.8 3-2.4 6.2-4.6 9.7-6.2 3.1-1.4 6.3-2.4 9.9-2.2 6.7.4 11.5 3.8 14.6 9.7 1.6 3.1 2.3 6.5 2.6 10 .2 2.4.3 4.9.3 7.4 0 6.9.1 13.7.1 20.6v1.5c.1 1.7.7 2.8 2.4 3.4 1.8.6 3.5 1 5.4 1.3 1.6.2 1.7.5 1.8 2v.5c-.2 3.4-.4 3.5-3.8 3.3-7.5-.4-15-.4-22.4 0-1 .1-2 0-3 .1-.6 0-1-.1-1.1-.7-.2-1.3-.4-2.6-.1-4 .1-.6.4-.9 1.1-1 1.5-.2 3.1-.4 4.6-.8 1.6-.4 2.5-1.4 2.7-3 .1-.9.2-1.9.2-2.8 0-7 0-14-.1-20.9 0-2.4-.1-4.8-.6-7.2-1.2-5.2-5.1-8.7-10.4-9.3-4.6-.5-8.7.7-12.6 3.2-1.9 1.2-2.7 2.9-2.7 5v10.6 4.5c0-.3 0-.3.1-.3z" fill="#47474a"/><path d="m78.2 94.6c-.2-.4-.4-.1-.6.1.1 2-.6 3.8-1.7 5.5-1.2 1.7-2.8 3-4.4 4.4-8.9 7.7-15.9 17-21.5 27.4-7.4 14-11.3 29-12.4 44.8-.5 5.7 1.8 25.8 3.6 31.6 4.9 15.4 13.7 28.3 25.1 39.5 2.8 2.7 5.8 5.2 8.9 7.6.9 0 1-.8 1.2-1.4.4-1.3.7-2.6.9-3.9.9-5 1.4-10 2-15 0-.6-.8-140.1-1.1-140.6z" fill="#6cac48"/><path d="m83.1 259.9c.2-2.3 1.3-4.2 2.5-6.1-1.2-.5-2.1-1.5-2.8-2.6-.6-1-1.1-2.2-1.5-3.3-1.4-4.2-1.7-8.6-2.1-12.9 0-.4 0-.9 0-1.3 0-.4 0-.9 0-1.3-.5.4-.6 3.8-.6 4.3-.3 4.6-.9 9.1-1.8 13.5-.3 1.8-.5 3.6-1.6 5.2 0 .2 0 .4.1.7 1.8 5.3 2.3 10.7 2.6 16.2v2c0 2.4-.1 1.9 1.9 2.7.8.3 1.7.4 2.5 1 .6 0 .7-.5.7-.9-.1-1.1-.3-2.2-.3-3.3 0-3.1-.1-6.1 0-9.2-.1-1.6.2-3.2.4-4.7z" fill="#c2bfbf"/><path d="m652.4 188.2c-1.1-7.3-3.8-13.8-8.5-19.5-4.2-5.1-9.3-8.9-15.4-11.4-6.3-2.6-13-3.4-19.8-3.6-2.8-.1-41 .5-43.8 0-.7-.1-1.2.1-1.6.7-.5.8-1 1.5-1.3 2.3-1.2 2.7-1.2 2.5 1.7 2.9 2.4.4 4.7.6 7 1.3 2.1.7 3.6 1.9 4.1 4.2.2 1.1.4 36.3.4 52.7 0 3.9-.1 7.8-.4 11.7-.1.9-.2 1.8-.5 2.6-.4 1.2-1.1 2.2-2.3 2.7-1.3.6-2.7 1-4.2 1.1-2.7.3-3.1.4-4 3.4-.1.4-.2.8-.3 1.1-.2 1.3-.1 1.5 1.2 1.5 6 .1 24.9.3 29.9.3 2.8-.1 7.3.2 11.7-.2 2.7-.3 5.4-.5 8.1-1 9.2-1.7 17.4-5.5 24.4-11.6 4.1-3.6 7.2-7.8 9.6-12.6 2.8-5.6 4-11.7 4.3-17.9.5-3.5.3-7.1-.3-10.7zm-14.5 14.2c-.4 6.4-1.7 12.6-5 18.2-4.2 7.3-10.2 12.4-18.5 14.2-3.6.8-7.2 1.1-10.9.6-2.7-.3-5.3-.6-7.8-1.5-4.5-1.6-6.1-4.4-6.2-8.7-.2-6.3 0-50.4-.1-60.3 0-3.6 1.6-4.4 4.2-4.5 3.9-.3 7.9-.2 11.8.2 4.2.4 8.2 1.4 12.1 3 2.9 1.2 5.6 2.9 7.9 4.9 5.4 4.6 9 10.4 10.9 17.2 1.6 5.5 1.9 11.1 1.6 16.7z" fill="#c2bfbf"/><path d="m735.5 212.2c0-.6 0-1.1-.1-1.7-.9-5.5-3.8-9.7-8.3-12.9-2.9-2.1-6.2-3.5-9.6-4.5-.6-.2-1.1-.4-1.7-.5.1-.5.4-.6.7-.7 2-1 3.9-2.1 5.6-3.6 3.1-2.6 5.2-5.8 6.2-9.7.6-2.1.6-4.2.4-6.4-.5-5.5-2.9-9.8-7.3-13-4.6-3.4-10-4.8-15.6-4.9-10.8-.2-21.7 0-32.5 0-3.1 0-6.2.2-9.4-.3-.6-.1-1.4-.3-1.9.4-.8 1.3-1.6 2.6-1.9 4.1-.1.7.1 1.1.9 1.2 2.3.3 4.6.7 6.9 1 2.7.4 4.6 1.9 4.8 4.3.2 1.7.3 3.3.3 5 0 6.2-.1 12.5-.2 18.7-.2 12.3-.1 24.7-.1 37 0 2.2-.3 4.3-.7 6.5-.3 1.5-1.1 2.5-2.6 3-2 .6-3.9 1.2-6 1.2-1.3 0-2.1.5-2.6 1.7-.4.9-.8 1.9-.9 2.8-.2 1.2.1 1.6 1.3 1.4.9-.1 33.9.7 40.1.1 3.7-.4 7.4-.9 11-2 6.3-2 12.1-4.9 16.7-9.8 3.8-4 6-8.8 6.2-14.4.3-1.3.3-2.6.3-4zm-48.5-40.9c.2-2.7.2-5.3.3-8 0-1.5.6-2.2 2.1-2.5 2.4-.5 4.8-.3 7.2-.2 2.4.2 4.7.5 7.1 1.2 4.4 1.3 7.8 3.8 9.8 8 .9 1.9 1.4 4 1.4 6.1.1 2.8-.1 5.5-1.2 8.2-1.7 3.7-4.4 6.1-8.3 6.8s-15 .4-16.7.4c-1.5 0-1.6-.2-1.6-1.7 0-3.2 0-6.4 0-9.5-.2-2.8-.3-5.8-.1-8.8zm32.5 53.8c-1.7 4.5-4.8 7.6-9.2 9.3-2.4.9-4.8 1.4-7.4 1.3-3.1-.1-6.2 0-9.3-.6-4.2-.9-6.1-4.9-6.4-7.8-.5-5.1-.2-10.3-.3-14.1 0-5.3 0-9.2 0-13.2 0-1.6.2-2.1 1.9-2.1 3.1-.1 6.2-.2 9.4.1 2.2.2 4.3.4 6.4.8 4.5 1 8.6 2.7 11.8 6.2 2.6 2.8 4 6.2 4.3 9.9.3 3.5.1 6.9-1.2 10.2z" fill="#c2bfbf"/><g fill="#47474a"><path d="m465.4 194.9c.9.1 1.8.3 2.6.4 2.8.1 6.1-.9 7.1-4.8.5-1.9.6-3.7 0-5.7-.6 0-.9.5-1.2.7-1.5 1.2-3.2 1.9-5 2.1-3.6.4-7.2.2-10.7-1.1-1.6-.6-3.2-1.2-4.9-1.7-3.4-1.1-7-1.6-10.6-1.4-5.1.4-9.9 2.1-14.4 4.5-4.8 2.6-8.2 6.5-9.8 11.8-.9 3.1-1 6.3-.6 9.5 1 7.3 4.8 12.4 11.6 15.1.4.1.7.3 1.1.4.9.5 1 1 .2 1.7-.8.6-1.6 1.2-2.5 1.7-2 1.2-4 2.4-6 3.7-1.5.9-1.7 1.6-1.2 3.2.6 1.9 1.7 3.5 3.2 4.8 1.4 1.2 2.9 2.1 4.6 2.8 1.1.5 1.1.8.1 1.6-1.9 1.4-3.8 2.7-5.7 4.1s-3.8 3-5.4 4.8c-2.3 2.6-3.1 5.6-2.4 9 .8 3.6 2.5 6.5 5.2 9 2.6 2.4 5.7 4.1 9.2 5 5.6 1.6 11.4 1.7 17.1.6 8.2-1.5 15.3-5.2 21-11.3 3.9-4.1 6.2-8.9 6.4-14.7.3-7-4-12.9-10.8-14.6-1.8-.4-3.6-.7-5.4-1-5.5-.7-11-1-16.5-1.4-1.8-.1-3.6-.4-5.1-1.3-1.9-1.2-2.4-3.5-1.2-5 .9-1.1 2-1.8 3.4-1.9 1.1-.1 2.1-.2 3.2-.3 6.5-.7 12.1-3.3 16.9-7.7 2.5-2.3 4.2-5.2 5.1-8.5 1.2-4.3 1.2-8.7.2-13.1-.3-1.1-.2-1.2 1.2-1zm-24.5 49.8c.6.1 1.2 0 1.8 0 4.2.2 8.5.5 12.6 1.6 1.4.4 2.6.9 3.9 1.5 4 2.2 5.5 6 5 10.1-.6 4.5-3.1 7.7-7 9.8-2.6 1.4-5.5 2.1-8.5 2.4-1.1.1-2.1 0-3.2 0-3.5.1-6.9-.3-10.2-1.7-2.3-.9-4.2-2.2-5.9-4-3.5-3.5-5.2-9.9.1-15.1 3.2-3 6.8-5 11.4-4.6zm11.4-31.2c-2.1 5.3-6.7 6.9-11.3 6.2-4.2-.6-7.3-2.9-9.3-6.7-2.6-5.1-3.3-10.4-1.8-15.9 1.1-4.1 3.6-7.2 8-7.9 5.6-1 10.9 1 13.8 6.6 1.4 2.7 2.1 6 2.1 10.7-.1 1.9-.5 4.5-1.5 7z"/><path d="m326.3 206.7c-.9-5.4-2.9-10.3-6.6-14.4-5.5-6.1-12.5-8.7-20.4-8.8-6.9-.1-13.4 1.9-19.2 5.5s-9.8 8.7-11.7 15.3c-1.7 5.8-1.6 11.7-.3 17.6 3.5 15.8 15.7 22.6 30.3 21.6 4.3-.3 8.4-1.7 12.3-3.6 5.8-2.7 10-7 12.9-12.7 2.3-4.7 3.3-9.7 3.2-15.4-.1-1.4-.2-3.3-.5-5.1zm-14.2 22.2c-1.8 4.8-5.2 7.7-10.3 8.4-4.4.6-8.5-.5-12.2-3.1-2.7-2-4.8-4.5-6.3-7.5-4.1-8.4-4.8-17.2-2.7-26.2.7-2.8 2.1-5.3 4.2-7.3 3.7-3.4 8-4.2 12.8-3.2 4.6 1 8.1 3.5 10.9 7.3s4.2 8.2 5 12.8c.4 2.3.4 4.7.5 6.2 0 4.8-.4 8.7-1.9 12.6z"/><path d="m544.8 207.5c-.8-5.8-2.9-11.1-7-15.5-5.4-5.9-12.4-8.4-20.2-8.5-6.7-.1-12.9 1.8-18.6 5.1-6.4 3.8-10.8 9.2-12.5 16.5-2 8.2-1.2 16.2 2.4 23.8 3.3 7 8.9 11.5 16.3 13.5 8.2 2.2 16 1.2 23.6-2.5 6.6-3.2 11.3-8.2 14-15 1.6-4 2.2-8.3 2.3-13.3.1-.9-.1-2.5-.3-4.1zm-13.8 20.1c-1.6 5.4-5 8.9-10.7 9.7-4.2.6-8.2-.4-11.8-2.8-3.1-2.1-5.3-4.9-6.9-8.2-1.8-3.5-2.8-7.2-3.2-11-.6-4.7-.6-9.3.5-14 .2-.9.5-1.8.9-2.7 2.8-7 9-10.2 16.3-8.6 4.9 1.1 8.6 3.8 11.4 7.9 2.7 4 4 8.4 4.6 13.1.3 1.9.4 3.9.3 5.6 0 3.9-.3 7.5-1.4 11z"/></g></svg>