<svg height="159.0246" width="590.96881" xmlns="http://www.w3.org/2000/svg"><g fill-rule="evenodd" transform="translate(-115.94417 -501.42131)"><path d="m414.48046 501.42155c-.40947.005-.82364.10273-1.18907.31708-.72963.42837-1.18908 1.21508-1.18908 2.06106v60.64254c0 .59586-.27746 1.12831-.79271 1.42714-.51655.29958-1.14689.29958-1.6647 0l-9.90893-5.70755c-1.47635-.85131-3.27961-.8508-4.75629 0l-39.55645 22.83018c-1.47889.85309-2.37815 2.49432-2.37815 4.20126v45.66036c0 1.70566.90053 3.2675 2.37815 4.12211l39.55645 22.83018c1.47889.85334 3.2774.85334 4.75629 0l39.55645-22.83018c1.47762-.85461 2.37815-2.41645 2.37815-4.12211v-113.83381c0-1.73162-.94492-3.35667-2.45742-4.20139l-23.54362-13.15906c-.36972-.20623-.7796-.24225-1.18907-.23768zm-254.46136 56.99605c-.75434.0304-1.46304.16234-2.14033.55502l-39.55646 22.83018c-1.47394.85207-2.37814 2.40402-2.37814 4.12212l.0791 61.2767c0 .85233.43971 1.64377 1.18908 2.06131.73449.43961 1.64613.43961 2.37814 0l23.46435-13.4764c1.48635-.88302 2.45741-2.41898 2.45741-4.12211v-28.61687c0-1.70694.89794-3.27359 2.37815-4.12212l9.9882-5.78668c.74548-.43099 1.54581-.63418 2.37814-.63418.81525 0 1.65329.20294 2.37815.63418l9.9882 5.78668c1.48016.84853 2.37814 2.41518 2.37814 4.12212v28.61687c0 1.70313.98076 3.24899 2.45742 4.12211l23.46435 13.4764c.73691.43961 1.64727.43961 2.37814 0 .72836-.41754 1.18907-1.20898 1.18907-2.06131l.0791-61.2767c0-1.7181-.89418-3.27005-2.37814-4.12212l-39.55637-22.83018c-.66905-.39268-1.38089-.52408-2.14033-.55502h-.47563zm355.45319.55502c-.8264-.001-1.63617.20801-2.37815.63417l-39.55645 22.83018c-1.47762.85334-2.37814 2.41518-2.37814 4.12212v45.66035c0 1.71683.96711 3.2736 2.45741 4.12212l39.23937 22.35455c1.44908.82747 3.21842.88936 4.67701.0786l23.78144-13.23846c.75466-.41856 1.26517-1.20036 1.26834-2.06106.005-.86095-.44392-1.63261-1.18907-2.06106l-39.79427-22.83018c-.74515-.42489-1.26834-1.28584-1.26834-2.14045v-14.26886c0-.85309.52953-1.6349 1.26834-2.06081l12.36635-7.13468c.73564-.42566 1.63933-.42566 2.37814 0l12.36635 7.13468c.73881.42591 1.18907 1.20772 1.18907 2.06081v11.2568c0 .85435.45026 1.63489 1.18907 2.0608.74198.42718 1.63934.42895 2.37815 0l23.70216-13.79298c1.47128-.85461 2.37814-2.42051 2.37814-4.12211v-11.01886c0-1.70187-.90369-3.26751-2.37814-4.12212l-39.31864-22.83018c-.74041-.4292-1.55174-.63315-2.37814-.63417zm-118.27301 34.08673c.20623 0 .44899.0507.63417.15727l13.55542 7.848c.36782.21308.63417.60551.63417 1.0304v15.69575c0 .42616-.26381.81884-.63417 1.03066l-13.55542 7.84774c-.36909.21055-.81998.21055-1.18907 0l-13.55542-7.84774c-.36909-.21308-.63417-.6045-.63417-1.03066v-15.69575c0-.42489.26635-.8163.63417-1.0304l13.55542-7.84673c.18518-.10654.34864-.15727.5549-.15727z" fill="#404137"/><path d="m633.98311 557.86282c-1.37141 0-2.70474.2836-3.8843.95126l-37.33686 21.56183c-2.41619 1.39112-3.8843 4.02065-3.8843 6.81735v43.04452c0 2.79518 1.46811 5.42166 3.8843 6.8171l9.75039 5.6284c4.73726 2.33476 6.48441 2.29874 8.64059 2.29874 7.01394 0 11.01873-4.2558 11.01873-11.65278v-42.48949c0-.60069-.52002-1.03066-1.1098-1.03066h-4.67701c-.5993 0-1.10981.42997-1.10981 1.03066v42.48949c0 3.27867-3.41501 6.57586-8.95767 3.80503l-10.14674-5.94523c-.35831-.19532-.63418-.54006-.63418-.95126v-43.04452c0-.40866.2727-.82366.63418-1.0304l37.25758-21.48269c.34879-.2004.76417-.2004 1.1098 0l37.25758 21.48269c.35514.21308.63417.60931.63417 1.0304v43.04452c0 .4112-.20623.83229-.5549 1.03041l-37.33685 21.48269c-.32026.19025-.76101.19025-1.1098 0l-9.59185-5.70755c-.28538-.16742-.67539-.15474-.95126 0-2.64766 1.50096-3.14549 1.67548-5.62827 2.53669-.61197.21308-1.54104.54463.31709 1.58543l12.52489 7.37212c1.19224.68997 2.52083 1.0304 3.8843 1.0304 1.38249 0 2.69206-.34043 3.8843-1.0304l37.33685-21.48269c2.4162-1.40533 3.8843-4.02192 3.8843-6.8171v-43.04452c0-2.7967-1.4681-5.42039-3.8843-6.81735l-37.33685-21.56183c-1.17005-.66766-2.51289-.95126-3.8843-.95126zm-355.13611.87186c-.82427 0-1.63996.20801-2.37814.63417l-39.55645 22.75104c-1.47889.85232-2.37815 2.49584-2.37815 4.20126v45.66035c0 1.70745.90022 3.26802 2.37815 4.12212l39.55645 22.83018c1.47889.8541 3.2774.8541 4.75629 0l39.55645-22.83018c1.47635-.8541 2.37815-2.41467 2.37815-4.12212v-45.66035c0-1.70795-.89926-3.34894-2.37815-4.20126l-39.55645-22.75104c-.73818-.42616-1.55388-.63417-2.37815-.63417zm410.54685.23845v1.1098h3.09159v8.16483h1.26834v-8.16483h3.17086v-1.1098zm8.64059 0v9.27463h1.18907v-5.4696c0-.22323.0101-.56847 0-1.0304-.0152-.47056 0-.88074 0-1.11006v-.23844l2.61596 7.84774h1.26834l2.69523-7.84774c0 .49922-.0667.98119-.0791 1.42688-.005.43377 0 .75949 0 .95126v5.4696h1.18907v-9.27463h-1.74397l-2.69523 7.848-2.61596-7.848h-1.82324zm-54.06313 29.64752c-10.63189 0-16.96409 4.52469-16.96409 12.04926 0 8.16281 6.28464 10.40549 16.48846 11.41509 12.20781 1.19504 13.15906 2.98746 13.15906 5.39046 0 4.16803-3.32306 5.94523-11.17727 5.94523-9.86771 0-12.03658-2.46337-12.76271-7.37211-.0855-.52637-.49148-.95126-1.03052-.95126h-4.83556c-.59612 0-1.1098.51266-1.1098 1.1098 0 6.28337 3.41818 13.71409 19.73859 13.71409 11.81462 0 18.62879-4.63757 18.62879-12.76283 0-8.055-5.50461-10.21702-16.96409-11.73218-11.57998-1.53216-12.68343-2.282-12.68343-4.99397 0-2.23863.9354-5.23217 9.51257-5.23217 7.66079 0 10.49237 1.65214 11.6529 6.8176.10147.48552.52954.87185 1.03053.87185h4.83556c.29806 0 .58661-.18264.79272-.39648.20293-.2283.34562-.48552.31708-.79246-.74832-8.89591-6.681-13.07992-18.62879-13.07992zm-128.57829 10.86032c-.15804 0-.33294 0-.47563.0786l-7.61006 4.4392c-.28538.16235-.47563.46446-.47563.79271v8.71986c0 .32825.19025.6291.47563.79272l7.61006 4.3598c.28537.16488.58978.16488.87198 0l7.61006-4.3598c.28221-.16235.47563-.46447.47563-.79272v-8.71986c0-.32825-.19329-.62935-.47563-.79271l-7.61006-4.4392c-.14104-.0837-.23819-.0786-.39635-.0786z" fill="#83cd29"/></g></svg>