<svg height="413" viewBox="0 0 730 413" width="730" xmlns="http://www.w3.org/2000/svg" xmlns:xlink="http://www.w3.org/1999/xlink"><defs><path id="a" d="m219.5 378.5h338.005917"/><path id="b" d="m219.5 302.5h338.005917"/><path id="c" d="m219.5 228.5h338.005917"/><path id="d" d="m219.5 152.5h338.005917"/><path id="e" d="m219.5 75.5h338.005917"/></defs><g fill="none" fill-rule="evenodd"><path d="m570 39h160v374h-160z" fill="#419fee"/><path d="m141 39h69v69h-69z" fill="#419fee"/><path d="m141 344h69v69h-69z" fill="#419fee"/><path d="m141 268h69v69h-69z" fill="#419fee"/><path d="m141 192h69v69h-69z" fill="#419fee"/><path d="m141 116h69v69h-69z" fill="#419fee"/><g stroke-linecap="square"><g stroke="#419fee" stroke-width="3"><use fill="#419fee" fill-rule="evenodd" xlink:href="#a"/><use xlink:href="#a"/><use xlink:href="#a"/></g><path d="m557.505917 378.5-10.8-3v6z"/><g stroke="#419fee" stroke-width="3"><use fill="#419fee" fill-rule="evenodd" xlink:href="#b"/><use xlink:href="#b"/><use xlink:href="#b"/></g><path d="m557.505917 302.5-10.8-3v6z"/><g stroke="#419fee" stroke-width="3"><use fill="#419fee" fill-rule="evenodd" xlink:href="#c"/><use xlink:href="#c"/><use xlink:href="#c"/></g><path d="m557.505917 228.5-10.8-3v6z"/><g stroke="#419fee" stroke-width="3"><use fill="#419fee" fill-rule="evenodd" xlink:href="#d"/><use xlink:href="#d"/><use xlink:href="#d"/></g><path d="m557.505917 152.5-10.8-3v6z"/><g stroke="#419fee" stroke-width="3"><use fill="#419fee" fill-rule="evenodd" xlink:href="#e"/><use xlink:href="#e"/><use xlink:href="#e"/></g><path d="m557.505917 75.5-10.8-3v6z"/></g><text fill="#000" font-family="Montserrat-Bold, Montserrat" font-size="24" font-weight="bold"><tspan x="620.908" y="23">DOM</tspan></text><text fill="#000" font-family="Montserrat-Bold, Montserrat" font-size="24" font-weight="bold"><tspan x="57.994" y="23">Data Driven Events</tspan></text><text fill="#000" font-family="Montserrat-Bold, Montserrat" font-size="14" font-weight="bold"><tspan x="1.445" y="77">Article Comments</tspan></text><text fill="#000" font-family="Montserrat-Bold, Montserrat" font-size="14" font-weight="bold"><tspan x="14.182" y="154">Users Signed On</tspan></text><text fill="#000" font-family="Montserrat-Bold, Montserrat" font-size="14" font-weight="bold"><tspan x="6.073" y="232">Weather Forecast</tspan></text><text fill="#000" font-family="Montserrat-Bold, Montserrat" font-size="14" font-weight="bold"><tspan x="2.022" y="305">Newsfeed Articles</tspan></text><text fill="#000" font-family="Montserrat-Bold, Montserrat" font-size="14" font-weight="bold"><tspan x="26.482" y="381">Messages Sent</tspan></text></g></svg>