<svg height="413" viewBox="0 0 730 413" width="730" xmlns="http://www.w3.org/2000/svg" xmlns:xlink="http://www.w3.org/1999/xlink"><defs><path id="a" d="m219.5 75.5 100 91"/><path id="b" d="m219.5 378.5 100-91"/><path id="c" d="m219.5 302.5 98-45"/><path id="d" d="m219.5 228.5h96"/><path id="e" d="m219.5 152.5 95 42"/><path id="f" d="m488.5 230.5h71"/></defs><g fill="none" fill-rule="evenodd"><g stroke="#419fee" stroke-linecap="square" stroke-width="3"><use fill="#419fee" fill-rule="evenodd" xlink:href="#a"/><use xlink:href="#a"/><use xlink:href="#a"/></g><path d="m319.5 166.5-5.968615-9.487657-4.038245 4.437632z" stroke-linecap="square"/><path d="m570 39h160v374h-160z" fill="#419fee"/><path d="m141 39h69v69h-69z" fill="#419fee"/><path d="m141 344h69v69h-69z" fill="#419fee"/><path d="m141 268h69v69h-69z" fill="#419fee"/><path d="m141 192h69v69h-69z" fill="#419fee"/><path d="m141 116h69v69h-69z" fill="#419fee"/><g stroke-linecap="square"><g stroke="#419fee" stroke-width="3"><use fill="#419fee" fill-rule="evenodd" xlink:href="#b"/><use xlink:href="#b"/><use xlink:href="#b"/></g><path d="m319.5 287.5-10.00686 5.050025 4.038245 4.437632z"/><g stroke="#419fee" stroke-width="3"><use fill="#419fee" fill-rule="evenodd" xlink:href="#c"/><use xlink:href="#c"/><use xlink:href="#c"/></g><path d="m317.5 257.5-11.066616 1.780451 2.503759 5.452631z"/><g stroke="#419fee" stroke-width="3"><use fill="#419fee" fill-rule="evenodd" xlink:href="#d"/><use xlink:href="#d"/><use xlink:href="#d"/></g><path d="m315.5 228.5-10.8-3v6z"/><g stroke="#419fee" stroke-width="3"><use fill="#419fee" fill-rule="evenodd" xlink:href="#e"/><use xlink:href="#e"/><use xlink:href="#e"/></g><path d="m314.5 194.5-8.664668-7.110804-2.426107 5.487623z"/><g stroke="#419fee" stroke-width="3"><use fill="#419fee" fill-rule="evenodd" xlink:href="#f"/><use xlink:href="#f"/><use xlink:href="#f"/></g><path d="m559.5 230.5-10.8-3v6z"/></g><text fill="#000" font-family="Montserrat-Bold, Montserrat" font-size="24" font-weight="bold"><tspan x="620.908" y="23">DOM</tspan></text><text fill="#000" font-family="Montserrat-Bold, Montserrat" font-size="24" font-weight="bold"><tspan x="325.796" y="139">Virtual DOM</tspan></text><text fill="#000" font-family="Montserrat-Bold, Montserrat" font-size="24" font-weight="bold"><tspan x="57.994" y="23">Data Driven Events</tspan></text><text fill="#000" font-family="Montserrat-Bold, Montserrat" font-size="14" font-weight="bold"><tspan x="1.445" y="77">Article Comments</tspan></text><text fill="#000" font-family="Montserrat-Bold, Montserrat" font-size="14" font-weight="bold"><tspan x="14.182" y="154">Users Signed On</tspan></text><text fill="#000" font-family="Montserrat-Bold, Montserrat" font-size="14" font-weight="bold"><tspan x="6.073" y="232">Weather Forecast</tspan></text><text fill="#000" font-family="Montserrat-Bold, Montserrat" font-size="14" font-weight="bold"><tspan x="2.022" y="305">Newsfeed Articles</tspan></text><text fill="#000" font-family="Montserrat-Bold, Montserrat" font-size="14" font-weight="bold"><tspan x="26.482" y="381">Messages Sent</tspan></text><path d="m327 157h147v147h-147z" fill="#419fee"/></g></svg>